fd_6_states
version=1
nRows=15
nColumns=17
inDegrees=yes

# SIMM Motion File Header:
name fd_6_states
datacolumns 17
datarows 15
otherdata 1
range 0.030000 0.038462
endheader
time	/jointset/r_shoulder/r_shoulder_elev/value	/jointset/r_shoulder/r_shoulder_elev/speed	/jointset/r_elbow/r_elbow_flex/value	/jointset/r_elbow/r_elbow_flex/speed	/forceset/TRIlong/activation	/forceset/TRIlong/fiber_length	/forceset/TRIlat/activation	/forceset/TRIlat/fiber_length	/forceset/TRImed/activation	/forceset/TRImed/fiber_length	/forceset/BIClong/activation	/forceset/BIClong/fiber_length	/forceset/BICshort/activation	/forceset/BICshort/fiber_length	/forceset/BRA/activation	/forceset/BRA/fiber_length
      0.030000	      0.000000	      0.000000	     81.636917	    383.702444	      0.020000	      0.166831	      0.020000	      0.101252	      0.020000	      0.096224	      0.462513	      0.104750	      0.249886	      0.103987	      0.138413	      0.071756
      0.030249	     -0.000001	     -0.005296	     81.732380	    383.594545	      0.020017	      0.166864	      0.020000	      0.101284	      0.020000	      0.096256	      0.459260	      0.104678	      0.248991	      0.103910	      0.138045	      0.071721
      0.030498	     -0.000003	     -0.010022	     81.827815	    383.482699	      0.020017	      0.166896	      0.020000	      0.101317	      0.020000	      0.096288	      0.456047	      0.104606	      0.248170	      0.103834	      0.137636	      0.071685
      0.031742	     -0.000026	     -0.025179	     82.304542	    382.849929	      0.020017	      0.167079	      0.020000	      0.101478	      0.020000	      0.096450	      0.440517	      0.104253	      0.244148	      0.103453	      0.135624	      0.071509
      0.032207	     -0.000037	     -0.023520	     82.482635	    382.584664	      0.020017	      0.167114	      0.020000	      0.101540	      0.020000	      0.096511	      0.434928	      0.104123	      0.242679	      0.103311	      0.134884	      0.071443
      0.032900	     -0.000052	     -0.018191	     82.747446	    382.144041	      0.020017	      0.167196	      0.020000	      0.101630	      0.020000	      0.096601	      0.426820	      0.103932	      0.240526	      0.103101	      0.133797	      0.071346
      0.033454	     -0.000060	     -0.010578	     82.959056	    381.751442	      0.020017	      0.167314	      0.020000	      0.101702	      0.020000	      0.096673	      0.420509	      0.103780	      0.238832	      0.102933	      0.132938	      0.071268
      0.034008	     -0.000061	      0.007370	     83.170444	    381.341466	      0.020016	      0.167343	      0.020000	      0.101774	      0.020000	      0.096745	      0.414346	      0.103630	      0.237163	      0.102766	      0.132090	      0.071190
      0.034518	     -0.000053	      0.023892	     83.365010	    380.922369	      0.020016	      0.167402	      0.020000	      0.101840	      0.020000	      0.096811	      0.408796	      0.103492	      0.235647	      0.102612	      0.131316	      0.071118
      0.035183	     -0.000028	      0.049544	     83.617912	    380.328290	      0.020016	      0.167545	      0.020000	      0.101926	      0.020000	      0.096897	      0.401749	      0.103314	      0.233704	      0.102413	      0.130322	      0.071024
      0.035847	      0.000018	      0.090371	     83.870411	    379.707101	      0.020016	      0.167575	      0.020000	      0.102013	      0.020000	      0.096983	      0.394895	      0.103138	      0.231795	      0.102213	      0.129341	      0.070931
      0.036332	      0.000069	      0.119032	     84.054465	    379.207847	      0.020016	      0.167630	      0.020000	      0.102075	      0.020000	      0.097045	      0.390009	      0.103010	      0.230422	      0.102068	      0.128633	      0.070862
      0.036998	      0.000163	      0.162192	     84.306919	    378.473930	      0.020016	      0.167762	      0.020000	      0.102161	      0.020000	      0.097131	      0.383452	      0.102834	      0.228564	      0.101868	      0.127672	      0.070768
      0.037665	      0.000290	      0.218060	     84.558875	    377.707553	      0.020016	      0.167799	      0.020000	      0.102247	      0.020000	      0.097217	      0.377070	      0.102660	      0.226738	      0.101669	      0.126724	      0.070675
      0.038462	      0.000490	      0.285938	     84.859603	    376.708886	      0.020015	      0.167893	      0.020000	      0.102350	      0.020000	      0.097320	      0.369654	      0.102452	      0.224595	      0.101431	      0.125607	      0.070562
